<svg width="28" height="28" viewBox="0 0 28 28" fill="none" xmlns="http://www.w3.org/2000/svg">
<path d="M26.6343 23.3485L21.376 18.0902C21.1387 17.8529 20.817 17.7211 20.4794 17.7211H19.6197C21.0754 15.8593 21.9404 13.5176 21.9404 10.9702C21.9404 4.91021 17.0301 0 10.9702 0C4.91021 0 0 4.91021 0 10.9702C0 17.0301 4.91021 21.9404 10.9702 21.9404C13.5176 21.9404 15.8593 21.0754 17.7211 19.6197V20.4794C17.7211 20.817 17.8529 21.1387 18.0902 21.376L23.3485 26.6343C23.8443 27.1301 24.646 27.1301 25.1365 26.6343L26.629 25.1417C27.1248 24.646 27.1248 23.8443 26.6343 23.3485ZM10.9702 17.7211C7.24137 17.7211 4.2193 14.7043 4.2193 10.9702C4.2193 7.24137 7.2361 4.2193 10.9702 4.2193C14.699 4.2193 17.7211 7.2361 17.7211 10.9702C17.7211 14.699 14.7043 17.7211 10.9702 17.7211Z" fill="#5D18EB"/>
</svg>
